<svg width="395" height="539" viewBox="0 0 395 539" fill="none" xmlns="http://www.w3.org/2000/svg">
<g opacity="0.27">
<path d="M151.45 205.45C152.382 205.45 153.293 205.172 154.069 204.652C154.845 204.131 155.45 203.391 155.808 202.524C157.751 193.902 162.32 186.106 168.875 180.224C169.966 179.493 170.329 178.031 170.329 176.568C170.282 175.969 170.093 175.391 169.777 174.882C169.461 174.372 169.027 173.948 168.512 173.644L66.1174 113.322L131.479 74.937C132.762 74.1914 133.836 73.1288 134.598 71.8495C135.361 70.5701 135.786 69.1163 135.836 67.6252C135.863 66.1178 135.469 64.6329 134.699 63.3401C133.929 62.0472 132.813 60.9985 131.479 60.3134L111.871 48.978C110.595 48.2589 109.157 47.8813 107.695 47.8813C106.233 47.8813 104.795 48.2589 103.519 48.978L15.6448 100.16C14.3611 100.905 13.2874 101.968 12.5249 103.247C11.7625 104.526 11.3364 105.98 11.287 107.471V209.106C11.2596 210.613 11.6537 212.098 12.4242 213.391C13.1947 214.684 14.3107 215.733 15.6448 216.418L35.2525 227.75C36.5653 228.541 38.0814 228.923 39.6094 228.847C41.7559 228.906 43.8405 228.119 45.4195 226.654C46.9885 224.962 47.8924 222.752 47.9628 220.439V145.132L149.634 205.085C150.202 205.35 150.824 205.475 151.45 205.45ZM284.351 333.405C282.838 333.463 281.355 333.837 279.993 334.502L214.633 372.524V254.073C214.633 251.513 212.089 248.952 209.186 250.051C200.911 252.547 192.109 252.674 183.767 250.417C183.14 250.234 182.48 250.199 181.837 250.314C181.195 250.428 180.587 250.69 180.061 251.079C179.535 251.467 179.104 251.972 178.802 252.555C178.501 253.137 178.336 253.782 178.321 254.439V372.157L112.959 334.136C111.646 333.345 110.13 332.964 108.602 333.04C106.394 333.064 104.284 333.958 102.723 335.53C101.162 337.101 100.275 339.226 100.25 341.448V364.48C100.222 365.987 100.616 367.472 101.387 368.765C102.157 370.058 103.274 371.107 104.608 371.792L192.482 422.609C193.795 423.399 195.311 423.781 196.839 423.705C198.357 423.689 199.85 423.313 201.197 422.609L289.072 371.792C290.355 371.046 291.429 369.984 292.191 368.704C292.954 367.425 293.379 365.971 293.429 364.48V341.448C292.707 337.427 288.708 333.405 284.351 333.405ZM197.231 231.222C201.221 231.222 205.121 230.031 208.438 227.8C211.755 225.568 214.34 222.397 215.867 218.686C217.393 214.975 217.793 210.892 217.015 206.952C216.236 203.013 214.315 199.394 211.494 196.554C208.673 193.714 205.079 191.78 201.166 190.996C197.254 190.213 193.198 190.615 189.512 192.152C185.826 193.689 182.676 196.292 180.46 199.632C178.243 202.971 177.06 206.898 177.06 210.914C177.06 213.581 177.581 216.223 178.595 218.687C179.608 221.151 181.094 223.39 182.967 225.276C184.84 227.163 187.064 228.659 189.511 229.68C191.959 230.7 194.582 231.226 197.231 231.226V231.222Z" fill="#C4C4C4" fill-opacity="0.13"/>
<path d="M263.358 65.3974C260.026 67.6298 256.109 68.8214 252.101 68.8214C246.728 68.8214 241.575 66.6809 237.775 62.8707C233.976 59.0605 231.841 53.8929 231.841 48.5045C231.841 44.4861 233.029 40.5581 235.256 37.217C237.482 33.8759 240.646 31.2718 244.348 29.734C248.05 28.1963 252.124 27.794 256.054 28.5779C259.984 29.3618 263.594 31.2968 266.428 34.1382C269.261 36.9796 271.191 40.5997 271.973 44.5408C272.754 48.4819 272.353 52.567 270.82 56.2794C269.286 59.9919 266.689 63.1649 263.358 65.3974Z" fill="#C4C4C4" fill-opacity="0.4"/>
<path d="M296.893 63.336C300.225 61.1036 304.142 59.912 308.15 59.912C313.523 59.912 318.676 62.0525 322.476 65.8627C326.275 69.6729 328.41 74.8406 328.41 80.2289C328.41 84.2473 327.222 88.1753 324.995 91.5164C322.769 94.8575 319.605 97.4616 315.903 98.9994C312.201 100.537 308.127 100.939 304.197 100.156C300.267 99.3716 296.657 97.4366 293.823 94.5952C290.99 91.7538 289.06 88.1337 288.278 84.1926C287.497 80.2515 287.898 76.1664 289.431 72.454C290.965 68.7415 293.562 65.5685 296.893 63.336Z" fill="#C4C4C4" fill-opacity="0.4"/>
<path d="M375.062 130.412C371.73 132.644 367.813 133.836 363.806 133.836C358.432 133.836 353.279 131.695 349.479 127.885C345.68 124.075 343.545 118.907 343.545 113.519C343.545 109.5 344.733 105.572 346.96 102.231C349.186 98.8901 352.35 96.286 356.052 94.7483C359.754 93.2106 363.828 92.8082 367.758 93.5921C371.688 94.3761 375.298 96.3111 378.132 99.1525C380.965 101.994 382.895 105.614 383.677 109.555C384.458 113.496 384.057 117.581 382.524 121.294C380.99 125.006 378.393 128.179 375.062 130.412Z" fill="#C4C4C4" fill-opacity="0.4"/>
<path d="M296.893 129.133C300.225 126.9 304.142 125.709 308.15 125.709C313.523 125.709 318.676 127.849 322.476 131.66C326.275 135.47 328.41 140.637 328.41 146.026C328.41 150.044 327.222 153.972 324.995 157.313C322.769 160.654 319.605 163.259 315.903 164.796C312.201 166.334 308.127 166.736 304.197 165.952C300.267 165.168 296.657 163.233 293.823 160.392C290.99 157.551 289.06 153.931 288.278 149.989C287.497 146.048 287.898 141.963 289.431 138.251C290.965 134.538 293.562 131.365 296.893 129.133Z" fill="#C4C4C4" fill-opacity="0.4"/>
<path d="M263.358 195.818C260.026 198.051 256.109 199.242 252.101 199.242V199.246C249.441 199.246 246.806 198.72 244.347 197.699C241.889 196.678 239.655 195.181 237.774 193.294C235.893 191.407 234.4 189.167 233.382 186.701C232.364 184.236 231.841 181.594 231.841 178.925C231.841 174.907 233.029 170.979 235.256 167.638C237.482 164.297 240.646 161.693 244.348 160.155C248.05 158.617 252.124 158.215 256.054 158.999C259.984 159.783 263.594 161.718 266.428 164.559C269.261 167.4 271.191 171.02 271.973 174.962C272.754 178.903 272.353 182.988 270.82 186.7C269.286 190.413 266.689 193.586 263.358 195.818Z" fill="#C4C4C4" fill-opacity="0.4"/>
<path d="M352.549 162.032C355.881 159.8 359.798 158.608 363.806 158.608V158.612C369.178 158.612 374.331 160.752 378.131 164.561C381.93 168.371 384.065 173.537 384.066 178.925C384.066 182.943 382.878 186.872 380.651 190.213C378.425 193.554 375.261 196.158 371.559 197.696C367.857 199.233 363.783 199.636 359.853 198.852C355.923 198.068 352.313 196.133 349.479 193.291C346.646 190.45 344.716 186.83 343.934 182.889C343.153 178.948 343.554 174.863 345.087 171.15C346.621 167.438 349.218 164.265 352.549 162.032Z" fill="#C4C4C4" fill-opacity="0.4"/>
<path d="M352.549 225.873C355.881 223.641 359.798 222.449 363.806 222.449V222.453C369.178 222.453 374.331 224.593 378.131 228.402C381.93 232.212 384.065 237.379 384.066 242.766C384.066 246.785 382.878 250.713 380.651 254.054C378.425 257.395 375.261 259.999 371.559 261.537C367.857 263.074 363.783 263.477 359.853 262.693C355.923 261.909 352.313 259.974 349.479 257.133C346.646 254.291 344.716 250.671 343.934 246.73C343.153 242.789 343.554 238.704 345.087 234.991C346.621 231.279 349.218 228.106 352.549 225.873Z" fill="#C4C4C4" fill-opacity="0.4"/>
<path d="M197.421 231.359C201.429 231.359 205.346 230.167 208.678 227.935C212.009 225.702 214.606 222.529 216.14 218.817C217.673 215.104 218.074 211.019 217.293 207.078C216.511 203.137 214.581 199.517 211.748 196.676C208.914 193.834 205.304 191.899 201.374 191.115C197.444 190.331 193.37 190.734 189.668 192.271C185.966 193.809 182.802 196.413 180.576 199.754C178.349 203.095 177.161 207.024 177.161 211.042C177.161 213.71 177.684 216.353 178.702 218.818C179.72 221.283 181.213 223.523 183.094 225.41C184.975 227.297 187.209 228.794 189.667 229.815C192.126 230.837 194.761 231.362 197.421 231.362V231.359Z" fill="#C4C4C4" fill-opacity="0.4"/>
<path d="M73.216 472.072V480.84H54.912V490.312H68.608V498.824H54.912V517H43.968V472.072H73.216ZM95.224 517.512C91.7253 517.512 88.568 516.765 85.752 515.272C82.9787 513.779 80.7813 511.645 79.16 508.872C77.5813 506.099 76.792 502.856 76.792 499.144C76.792 495.475 77.6027 492.253 79.224 489.48C80.8453 486.664 83.064 484.509 85.88 483.016C88.696 481.523 91.8533 480.776 95.352 480.776C98.8507 480.776 102.008 481.523 104.824 483.016C107.64 484.509 109.859 486.664 111.48 489.48C113.101 492.253 113.912 495.475 113.912 499.144C113.912 502.813 113.08 506.056 111.416 508.872C109.795 511.645 107.555 513.779 104.696 515.272C101.88 516.765 98.7227 517.512 95.224 517.512ZM95.224 508.04C97.3147 508.04 99.0853 507.272 100.536 505.736C102.029 504.2 102.776 502.003 102.776 499.144C102.776 496.285 102.051 494.088 100.6 492.552C99.192 491.016 97.4427 490.248 95.352 490.248C93.2187 490.248 91.448 491.016 90.04 492.552C88.632 494.045 87.928 496.243 87.928 499.144C87.928 502.003 88.6107 504.2 89.976 505.736C91.384 507.272 93.1333 508.04 95.224 508.04ZM130.662 487.24C131.942 485.277 133.542 483.741 135.462 482.632C137.382 481.48 139.515 480.904 141.862 480.904V492.488H138.854C136.123 492.488 134.075 493.085 132.71 494.28C131.345 495.432 130.662 497.48 130.662 500.424V517H119.718V481.288H130.662V487.24ZM180.757 498.568C180.757 499.592 180.693 500.659 180.565 501.768H155.797C155.968 503.987 156.672 505.693 157.909 506.888C159.189 508.04 160.746 508.616 162.581 508.616C165.312 508.616 167.21 507.464 168.277 505.16H179.925C179.328 507.507 178.24 509.619 176.661 511.496C175.125 513.373 173.184 514.845 170.837 515.912C168.49 516.979 165.866 517.512 162.965 517.512C159.466 517.512 156.352 516.765 153.621 515.272C150.89 513.779 148.757 511.645 147.221 508.872C145.685 506.099 144.917 502.856 144.917 499.144C144.917 495.432 145.664 492.189 147.157 489.416C148.693 486.643 150.826 484.509 153.557 483.016C156.288 481.523 159.424 480.776 162.965 480.776C166.421 480.776 169.493 481.501 172.181 482.952C174.869 484.403 176.96 486.472 178.453 489.16C179.989 491.848 180.757 494.984 180.757 498.568ZM169.557 495.688C169.557 493.811 168.917 492.317 167.637 491.208C166.357 490.099 164.757 489.544 162.837 489.544C161.002 489.544 159.445 490.077 158.165 491.144C156.928 492.211 156.16 493.725 155.861 495.688H169.557Z" fill="#C4C4C4" fill-opacity="0.13"/>
<path d="M185.635 494.6C185.635 490.205 186.595 486.28 188.515 482.824C190.435 479.325 193.059 476.616 196.387 474.696C199.715 472.733 203.427 471.752 207.523 471.752C212.515 471.752 216.781 472.947 220.323 475.336C223.907 477.683 226.509 481.011 228.131 485.32H222.883C221.603 482.291 219.64 479.923 216.995 478.216C214.392 476.509 211.235 475.656 207.523 475.656C204.237 475.656 201.272 476.424 198.627 477.96C196.024 479.496 193.976 481.715 192.483 484.616C190.989 487.475 190.243 490.803 190.243 494.6C190.243 498.397 190.989 501.725 192.483 504.584C193.976 507.443 196.024 509.64 198.627 511.176C201.272 512.712 204.237 513.48 207.523 513.48C211.235 513.48 214.392 512.648 216.995 510.984C219.64 509.277 221.603 506.931 222.883 503.944H228.131C226.509 508.211 223.907 511.517 220.323 513.864C216.739 516.211 212.472 517.384 207.523 517.384C203.427 517.384 199.715 516.424 196.387 514.504C193.059 512.541 190.435 509.832 188.515 506.376C186.595 502.92 185.635 498.995 185.635 494.6ZM235.01 499.464C235.01 495.88 235.714 492.744 237.122 490.056C238.572 487.325 240.556 485.235 243.074 483.784C245.634 482.291 248.514 481.544 251.714 481.544C255.042 481.544 257.9 482.312 260.29 483.848C262.722 485.384 264.471 487.347 265.538 489.736V482.056H270.018V517H265.538V509.256C264.428 511.645 262.658 513.629 260.226 515.208C257.836 516.744 254.978 517.512 251.65 517.512C248.492 517.512 245.634 516.765 243.074 515.272C240.556 513.779 238.572 511.667 237.122 508.936C235.714 506.205 235.01 503.048 235.01 499.464ZM265.538 499.528C265.538 496.712 264.962 494.237 263.81 492.104C262.658 489.971 261.079 488.328 259.074 487.176C257.111 486.024 254.935 485.448 252.546 485.448C250.071 485.448 247.852 486.003 245.89 487.112C243.927 488.221 242.37 489.843 241.218 491.976C240.108 494.067 239.554 496.563 239.554 499.464C239.554 502.323 240.108 504.84 241.218 507.016C242.37 509.149 243.927 510.792 245.89 511.944C247.852 513.053 250.071 513.608 252.546 513.608C254.935 513.608 257.111 513.032 259.074 511.88C261.079 510.728 262.658 509.085 263.81 506.952C264.962 504.819 265.538 502.344 265.538 499.528ZM292.277 517.512C288.266 517.512 284.981 516.595 282.421 514.76C279.904 512.883 278.496 510.344 278.197 507.144H282.805C283.018 509.107 283.936 510.707 285.557 511.944C287.221 513.139 289.44 513.736 292.213 513.736C294.645 513.736 296.544 513.16 297.909 512.008C299.317 510.856 300.021 509.427 300.021 507.72C300.021 506.525 299.637 505.544 298.869 504.776C298.101 504.008 297.12 503.411 295.925 502.984C294.773 502.515 293.194 502.024 291.189 501.512C288.586 500.829 286.474 500.147 284.853 499.464C283.232 498.781 281.845 497.779 280.693 496.456C279.584 495.091 279.029 493.277 279.029 491.016C279.029 489.309 279.541 487.731 280.565 486.28C281.589 484.829 283.04 483.677 284.917 482.824C286.794 481.971 288.928 481.544 291.317 481.544C295.072 481.544 298.101 482.504 300.405 484.424C302.709 486.301 303.946 488.904 304.117 492.232H299.637C299.509 490.184 298.698 488.541 297.205 487.304C295.754 486.024 293.749 485.384 291.189 485.384C288.928 485.384 287.093 485.917 285.685 486.984C284.277 488.051 283.573 489.373 283.573 490.952C283.573 492.317 283.978 493.448 284.789 494.344C285.642 495.197 286.688 495.88 287.925 496.392C289.162 496.861 290.826 497.395 292.917 497.992C295.434 498.675 297.44 499.336 298.933 499.976C300.426 500.616 301.706 501.555 302.773 502.792C303.84 504.029 304.394 505.672 304.437 507.72C304.437 509.597 303.925 511.283 302.901 512.776C301.877 514.227 300.448 515.379 298.613 516.232C296.778 517.085 294.666 517.512 292.277 517.512ZM318.694 485.832V507.528C318.694 509.661 319.099 511.133 319.91 511.944C320.721 512.755 322.15 513.16 324.198 513.16H328.294V517H323.494C320.337 517 317.99 516.275 316.454 514.824C314.918 513.331 314.15 510.899 314.15 507.528V485.832H309.286V482.056H314.15V473.288H318.694V482.056H328.294V485.832H318.694Z" fill="#C4C4C4" fill-opacity="0.4"/>
</g>
</svg>
