<svg width="218" height="326" viewBox="0 0 218 326" fill="none" xmlns="http://www.w3.org/2000/svg">
<path d="M84.4983 109.131C84.9966 109.131 85.4838 108.984 85.8984 108.708C86.3131 108.431 86.6365 108.038 86.828 107.578C87.8666 103.001 90.3083 98.8621 93.8124 95.7394C94.3951 95.3513 94.5891 94.575 94.5891 93.7983C94.5644 93.4804 94.4632 93.1733 94.2942 92.903C94.1251 92.6326 93.8933 92.4072 93.6183 92.2458L38.8885 60.2217L73.824 39.8438C74.51 39.448 75.0839 38.8839 75.4913 38.2047C75.8988 37.5255 76.1264 36.7536 76.1527 35.962C76.1674 35.1618 75.9569 34.3735 75.5451 33.6871C75.1334 33.0008 74.5369 32.444 73.824 32.0803L63.3436 26.0625C62.6617 25.6808 61.8932 25.4803 61.1117 25.4803C60.3302 25.4803 59.5617 25.6808 58.8797 26.0625L11.911 53.2341C11.2249 53.6299 10.651 54.194 10.2435 54.8732C9.83591 55.5523 9.60819 56.3242 9.58177 57.1158V111.072C9.56715 111.872 9.77777 112.661 10.1896 113.347C10.6015 114.033 11.1979 114.59 11.911 114.954L22.3913 120.97C23.093 121.39 23.9033 121.593 24.72 121.553C25.8673 121.584 26.9815 121.166 27.8255 120.388C28.6641 119.49 29.1473 118.317 29.1849 117.089V77.1094L83.528 108.938C83.8315 109.078 84.1641 109.144 84.4983 109.131ZM155.534 177.061C154.725 177.092 153.932 177.29 153.204 177.643L118.269 197.828V134.945C118.269 133.585 116.91 132.226 115.358 132.81C110.935 134.135 106.231 134.202 101.772 133.004C101.437 132.907 101.084 132.888 100.74 132.949C100.397 133.01 100.072 133.149 99.7909 133.355C99.5097 133.561 99.2796 133.829 99.1183 134.139C98.9571 134.448 98.869 134.79 98.8608 135.139V197.634L63.9254 177.449C63.2235 177.029 62.413 176.827 61.5961 176.867C60.4163 176.88 59.2885 177.355 58.4542 178.189C57.6199 179.023 57.1454 180.151 57.1322 181.331V193.558C57.1175 194.358 57.3281 195.147 57.7399 195.833C58.1518 196.52 58.7483 197.076 59.4615 197.44L106.43 224.418C107.132 224.838 107.942 225.04 108.759 225C109.57 224.991 110.368 224.792 111.088 224.418L158.057 197.44C158.743 197.044 159.317 196.48 159.724 195.801C160.132 195.122 160.359 194.35 160.386 193.558V181.331C160 179.196 157.862 177.061 155.534 177.061ZM108.968 122.813C111.101 122.813 113.185 122.181 114.958 120.996C116.731 119.812 118.113 118.128 118.929 116.158C119.745 114.188 119.959 112.02 119.543 109.929C119.127 107.838 118.1 105.916 116.592 104.409C115.084 102.901 113.163 101.874 111.072 101.458C108.98 101.042 106.813 101.256 104.843 102.072C102.873 102.888 101.189 104.27 100.004 106.042C98.8195 107.815 98.1872 109.9 98.1872 112.032C98.187 113.448 98.4657 114.85 99.0074 116.159C99.5491 117.467 100.343 118.656 101.344 119.657C102.345 120.658 103.534 121.453 104.842 121.994C106.15 122.536 107.553 122.815 108.968 122.815V122.813Z" fill="#44EE88"/>
<path d="M144.055 34.7455C142.282 35.9302 140.198 36.5625 138.065 36.5625C135.206 36.5625 132.464 35.4266 130.442 33.4047C128.42 31.3829 127.284 28.6406 127.284 25.7813C127.284 23.6489 127.917 21.5645 129.101 19.7915C130.286 18.0185 131.97 16.6367 133.94 15.8207C135.91 15.0047 138.077 14.7912 140.169 15.2072C142.26 15.6232 144.181 16.65 145.689 18.1578C147.197 19.6655 148.224 21.5866 148.64 23.6779C149.056 25.7693 148.842 27.937 148.026 29.9071C147.21 31.8771 145.828 33.5609 144.055 34.7455Z" fill="#F2F2F2"/>
<path d="M161.901 33.6517C163.674 32.467 165.758 31.8347 167.891 31.8347C170.75 31.8347 173.492 32.9706 175.514 34.9924C177.536 37.0143 178.672 39.7566 178.672 42.6159C178.672 44.7483 178.04 46.8327 176.855 48.6057C175.67 50.3787 173.986 51.7605 172.016 52.5765C170.046 53.3925 167.879 53.606 165.787 53.19C163.696 52.774 161.775 51.7472 160.267 50.2394C158.759 48.7317 157.732 46.8106 157.316 44.7193C156.901 42.6279 157.114 40.4602 157.93 38.4901C158.746 36.5201 160.128 34.8363 161.901 33.6517Z" fill="#F2F2F2"/>
<path d="M203.497 69.2455C201.724 70.4302 199.639 71.0625 197.507 71.0625C194.648 71.0625 191.906 69.9266 189.884 67.9047C187.862 65.8829 186.726 63.1406 186.726 60.2813C186.726 58.1489 187.358 56.0645 188.543 54.2915C189.728 52.5185 191.411 51.1367 193.381 50.3207C195.351 49.5047 197.519 49.2912 199.61 49.7072C201.702 50.1232 203.623 51.15 205.131 52.6578C206.638 54.1655 207.665 56.0866 208.081 58.1779C208.497 60.2693 208.284 62.437 207.468 64.4071C206.652 66.3771 205.27 68.0609 203.497 69.2455Z" fill="#F2F2F2"/>
<path d="M161.901 68.567C163.674 67.3823 165.758 66.75 167.891 66.75C170.75 66.75 173.492 67.8859 175.514 69.9078C177.536 71.9296 178.672 74.6719 178.672 77.5313C178.672 79.6636 178.04 81.748 176.855 83.521C175.67 85.294 173.986 86.6758 172.016 87.4918C170.046 88.3078 167.879 88.5214 165.787 88.1054C163.696 87.6894 161.775 86.6625 160.267 85.1547C158.759 83.647 157.732 81.7259 157.316 79.6346C156.901 77.5432 157.114 75.3755 157.93 73.4054C158.746 71.4354 160.128 69.7516 161.901 68.567Z" fill="#F2F2F2"/>
<path d="M144.055 103.954C142.282 105.138 140.198 105.771 138.065 105.771V105.773C136.649 105.773 135.247 105.494 133.939 104.952C132.631 104.41 131.442 103.615 130.441 102.614C129.44 101.613 128.646 100.424 128.104 99.1158C127.563 97.8075 127.284 96.4053 127.284 94.9894C127.284 92.857 127.917 90.7726 129.101 88.9996C130.286 87.2267 131.97 85.8448 133.94 85.0288C135.91 84.2128 138.077 83.9993 140.169 84.4153C142.26 84.8313 144.181 85.8581 145.689 87.3659C147.197 88.8737 148.224 90.7947 148.64 92.8861C149.056 94.9774 148.842 97.1452 148.026 99.1152C147.21 101.085 145.828 102.769 144.055 103.954Z" fill="#F2F2F2"/>
<path d="M191.517 86.0251C193.29 84.8404 195.375 84.2081 197.507 84.2081V84.21C200.366 84.21 203.108 85.3456 205.13 87.3671C207.152 89.3886 208.288 92.1303 208.288 94.9894C208.288 97.1217 207.656 99.2062 206.471 100.979C205.287 102.752 203.603 104.134 201.633 104.95C199.663 105.766 197.495 105.979 195.404 105.563C193.312 105.147 191.391 104.121 189.884 102.613C188.376 101.105 187.349 99.1841 186.933 97.0927C186.517 95.0013 186.731 92.8336 187.547 90.8636C188.363 88.8936 189.744 87.2098 191.517 86.0251Z" fill="#F2F2F2"/>
<path d="M191.517 119.903C193.29 118.718 195.375 118.086 197.507 118.086V118.088C200.366 118.088 203.108 119.223 205.13 121.245C207.152 123.266 208.288 126.008 208.288 128.867C208.288 130.999 207.656 133.084 206.471 134.857C205.287 136.63 203.603 138.011 201.633 138.827C199.663 139.643 197.495 139.857 195.404 139.441C193.312 139.025 191.391 137.998 189.884 136.49C188.376 134.983 187.349 133.062 186.933 130.97C186.517 128.879 186.731 126.711 187.547 124.741C188.363 122.771 189.744 121.087 191.517 119.903Z" fill="#F2F2F2"/>
<path d="M108.968 122.813C111.101 122.813 113.185 122.181 114.958 120.996C116.731 119.812 118.113 118.128 118.929 116.158C119.745 114.188 119.958 112.02 119.542 109.929C119.126 107.838 118.1 105.916 116.592 104.409C115.084 102.901 113.163 101.874 111.072 101.458C108.98 101.042 106.812 101.256 104.842 102.072C102.872 102.888 101.189 104.269 100.004 106.042C98.8193 107.815 98.187 109.9 98.187 112.032C98.1868 113.448 98.4655 114.85 99.0071 116.159C99.5488 117.467 100.343 118.656 101.344 119.657C102.345 120.658 103.534 121.453 104.842 121.994C106.15 122.536 107.552 122.815 108.968 122.815V122.813Z" fill="#F2F2F2"/>
<path d="M24.912 273.304V279.88H11.184V286.984H21.456V293.368H11.184V307H2.976V273.304H24.912ZM41.418 307.384C38.794 307.384 36.426 306.824 34.314 305.704C32.234 304.584 30.586 302.984 29.37 300.904C28.186 298.824 27.594 296.392 27.594 293.608C27.594 290.856 28.202 288.44 29.418 286.36C30.634 284.248 32.298 282.632 34.41 281.512C36.522 280.392 38.89 279.832 41.514 279.832C44.138 279.832 46.506 280.392 48.618 281.512C50.73 282.632 52.394 284.248 53.61 286.36C54.826 288.44 55.434 290.856 55.434 293.608C55.434 296.36 54.81 298.792 53.562 300.904C52.346 302.984 50.666 304.584 48.522 305.704C46.41 306.824 44.042 307.384 41.418 307.384ZM41.418 300.28C42.986 300.28 44.314 299.704 45.402 298.552C46.522 297.4 47.082 295.752 47.082 293.608C47.082 291.464 46.538 289.816 45.45 288.664C44.394 287.512 43.082 286.936 41.514 286.936C39.914 286.936 38.586 287.512 37.53 288.664C36.474 289.784 35.946 291.432 35.946 293.608C35.946 295.752 36.458 297.4 37.482 298.552C38.538 299.704 39.85 300.28 41.418 300.28ZM67.9965 284.68C68.9565 283.208 70.1565 282.056 71.5965 281.224C73.0365 280.36 74.6365 279.928 76.3965 279.928V288.616H74.1405C72.0925 288.616 70.5565 289.064 69.5325 289.96C68.5085 290.824 67.9965 292.36 67.9965 294.568V307H59.7885V280.216H67.9965V284.68ZM105.568 293.176C105.568 293.944 105.52 294.744 105.424 295.576H86.8478C86.9758 297.24 87.5038 298.52 88.4318 299.416C89.3918 300.28 90.5598 300.712 91.9358 300.712C93.9838 300.712 95.4078 299.848 96.2078 298.12H104.944C104.496 299.88 103.68 301.464 102.496 302.872C101.344 304.28 99.8878 305.384 98.1278 306.184C96.3678 306.984 94.3998 307.384 92.2238 307.384C89.5998 307.384 87.2638 306.824 85.2158 305.704C83.1678 304.584 81.5678 302.984 80.4158 300.904C79.2638 298.824 78.6878 296.392 78.6878 293.608C78.6878 290.824 79.2478 288.392 80.3678 286.312C81.5198 284.232 83.1198 282.632 85.1678 281.512C87.2158 280.392 89.5678 279.832 92.2238 279.832C94.8158 279.832 97.1198 280.376 99.1358 281.464C101.152 282.552 102.72 284.104 103.84 286.12C104.992 288.136 105.568 290.488 105.568 293.176ZM97.1678 291.016C97.1678 289.608 96.6878 288.488 95.7278 287.656C94.7678 286.824 93.5678 286.408 92.1278 286.408C90.7518 286.408 89.5838 286.808 88.6238 287.608C87.6958 288.408 87.1198 289.544 86.8958 291.016H97.1678Z" fill="#44EE88"/>
<path d="M109.226 290.2C109.226 286.904 109.946 283.96 111.386 281.368C112.826 278.744 114.794 276.712 117.29 275.272C119.786 273.8 122.57 273.064 125.642 273.064C129.386 273.064 132.586 273.96 135.242 275.752C137.93 277.512 139.882 280.008 141.098 283.24H137.162C136.202 280.968 134.73 279.192 132.746 277.912C130.794 276.632 128.426 275.992 125.642 275.992C123.178 275.992 120.954 276.568 118.97 277.72C117.018 278.872 115.482 280.536 114.362 282.712C113.242 284.856 112.682 287.352 112.682 290.2C112.682 293.048 113.242 295.544 114.362 297.688C115.482 299.832 117.018 301.48 118.97 302.632C120.954 303.784 123.178 304.36 125.642 304.36C128.426 304.36 130.794 303.736 132.746 302.488C134.73 301.208 136.202 299.448 137.162 297.208H141.098C139.882 300.408 137.93 302.888 135.242 304.648C132.554 306.408 129.354 307.288 125.642 307.288C122.57 307.288 119.786 306.568 117.29 305.128C114.794 303.656 112.826 301.624 111.386 299.032C109.946 296.44 109.226 293.496 109.226 290.2ZM146.257 293.848C146.257 291.16 146.785 288.808 147.841 286.792C148.929 284.744 150.417 283.176 152.305 282.088C154.225 280.968 156.385 280.408 158.785 280.408C161.281 280.408 163.425 280.984 165.217 282.136C167.041 283.288 168.353 284.76 169.153 286.552V280.792H172.513V307H169.153V301.192C168.321 302.984 166.993 304.472 165.169 305.656C163.377 306.808 161.233 307.384 158.737 307.384C156.369 307.384 154.225 306.824 152.305 305.704C150.417 304.584 148.929 303 147.841 300.952C146.785 298.904 146.257 296.536 146.257 293.848ZM169.153 293.896C169.153 291.784 168.721 289.928 167.857 288.328C166.993 286.728 165.809 285.496 164.305 284.632C162.833 283.768 161.201 283.336 159.409 283.336C157.553 283.336 155.889 283.752 154.417 284.584C152.945 285.416 151.777 286.632 150.913 288.232C150.081 289.8 149.665 291.672 149.665 293.848C149.665 295.992 150.081 297.88 150.913 299.512C151.777 301.112 152.945 302.344 154.417 303.208C155.889 304.04 157.553 304.456 159.409 304.456C161.201 304.456 162.833 304.024 164.305 303.16C165.809 302.296 166.993 301.064 167.857 299.464C168.721 297.864 169.153 296.008 169.153 293.896ZM189.208 307.384C186.2 307.384 183.736 306.696 181.816 305.32C179.928 303.912 178.872 302.008 178.648 299.608H182.104C182.264 301.08 182.952 302.28 184.168 303.208C185.416 304.104 187.08 304.552 189.16 304.552C190.984 304.552 192.408 304.12 193.432 303.256C194.488 302.392 195.016 301.32 195.016 300.04C195.016 299.144 194.728 298.408 194.152 297.832C193.576 297.256 192.84 296.808 191.944 296.488C191.08 296.136 189.896 295.768 188.392 295.384C186.44 294.872 184.856 294.36 183.64 293.848C182.424 293.336 181.384 292.584 180.52 291.592C179.688 290.568 179.272 289.208 179.272 287.512C179.272 286.232 179.656 285.048 180.424 283.96C181.192 282.872 182.28 282.008 183.688 281.368C185.096 280.728 186.696 280.408 188.488 280.408C191.304 280.408 193.576 281.128 195.304 282.568C197.032 283.976 197.96 285.928 198.088 288.424H194.728C194.632 286.888 194.024 285.656 192.904 284.728C191.816 283.768 190.312 283.288 188.392 283.288C186.696 283.288 185.32 283.688 184.264 284.488C183.208 285.288 182.68 286.28 182.68 287.464C182.68 288.488 182.984 289.336 183.592 290.008C184.232 290.648 185.016 291.16 185.944 291.544C186.872 291.896 188.12 292.296 189.688 292.744C191.576 293.256 193.08 293.752 194.2 294.232C195.32 294.712 196.28 295.416 197.08 296.344C197.88 297.272 198.296 298.504 198.328 300.04C198.328 301.448 197.944 302.712 197.176 303.832C196.408 304.92 195.336 305.784 193.96 306.424C192.584 307.064 191 307.384 189.208 307.384ZM209.021 283.624V299.896C209.021 301.496 209.325 302.6 209.933 303.208C210.541 303.816 211.613 304.12 213.148 304.12H216.221V307H212.621C210.253 307 208.493 306.456 207.341 305.368C206.189 304.248 205.613 302.424 205.613 299.896V283.624H201.965V280.792H205.613V274.216H209.021V280.792H216.221V283.624H209.021Z" fill="#F2F2F2"/>
</svg>
