<svg width="108" height="18" viewBox="0 0 108 18" fill="none" xmlns="http://www.w3.org/2000/svg">
<path d="M11.456 0.294852V3.58285H4.592V7.13485H9.728V10.3269H4.592V17.1429H0.488V0.294852H11.456ZM19.709 17.3349C18.397 17.3349 17.213 17.0549 16.157 16.4949C15.117 15.9349 14.293 15.1349 13.685 14.0949C13.093 13.0549 12.797 11.8389 12.797 10.4469C12.797 9.07085 13.101 7.86285 13.709 6.82285C14.317 5.76685 15.149 4.95885 16.205 4.39885C17.261 3.83885 18.445 3.55885 19.757 3.55885C21.069 3.55885 22.253 3.83885 23.309 4.39885C24.365 4.95885 25.197 5.76685 25.805 6.82285C26.413 7.86285 26.717 9.07085 26.717 10.4469C26.717 11.8229 26.405 13.0389 25.781 14.0949C25.173 15.1349 24.333 15.9349 23.261 16.4949C22.205 17.0549 21.021 17.3349 19.709 17.3349ZM19.709 13.7829C20.493 13.7829 21.157 13.4949 21.701 12.9189C22.261 12.3429 22.541 11.5189 22.541 10.4469C22.541 9.37485 22.269 8.55085 21.725 7.97485C21.197 7.39885 20.541 7.11085 19.757 7.11085C18.957 7.11085 18.293 7.39885 17.765 7.97485C17.237 8.53485 16.973 9.35885 16.973 10.4469C16.973 11.5189 17.229 12.3429 17.741 12.9189C18.269 13.4949 18.925 13.7829 19.709 13.7829ZM32.9983 5.98285C33.4783 5.24685 34.0783 4.67085 34.7983 4.25485C35.5183 3.82285 36.3183 3.60685 37.1983 3.60685V7.95085H36.0703C35.0463 7.95085 34.2783 8.17485 33.7663 8.62285C33.2543 9.05485 32.9983 9.82285 32.9983 10.9269V17.1429H28.8943V3.75085H32.9983V5.98285ZM51.7839 10.2309C51.7839 10.6149 51.7599 11.0149 51.7119 11.4309H42.4239C42.4879 12.2629 42.7519 12.9029 43.2159 13.3509C43.6959 13.7829 44.2799 13.9989 44.9679 13.9989C45.9919 13.9989 46.7039 13.5669 47.1039 12.7029H51.4719C51.2479 13.5829 50.8399 14.3749 50.2479 15.0789C49.6719 15.7829 48.9439 16.3349 48.0639 16.7349C47.1839 17.1349 46.1999 17.3349 45.1119 17.3349C43.7999 17.3349 42.6319 17.0549 41.6079 16.4949C40.5839 15.9349 39.7839 15.1349 39.2079 14.0949C38.6319 13.0549 38.3439 11.8389 38.3439 10.4469C38.3439 9.05485 38.6239 7.83885 39.1839 6.79885C39.7599 5.75885 40.5599 4.95885 41.5839 4.39885C42.6079 3.83885 43.7839 3.55885 45.1119 3.55885C46.4079 3.55885 47.5599 3.83085 48.5679 4.37485C49.5759 4.91885 50.3599 5.69485 50.9199 6.70285C51.4959 7.71085 51.7839 8.88685 51.7839 10.2309ZM47.5839 9.15085C47.5839 8.44685 47.3439 7.88685 46.8639 7.47085C46.3839 7.05485 45.7839 6.84685 45.0639 6.84685C44.3759 6.84685 43.7919 7.04685 43.3119 7.44685C42.8479 7.84685 42.5599 8.41485 42.4479 9.15085H47.5839Z" fill="#44EE88"/>
<path d="M53.6129 8.74285C53.6129 7.09485 53.9729 5.62285 54.6929 4.32685C55.4129 3.01485 56.3969 1.99885 57.6449 1.27885C58.8929 0.542852 60.2849 0.174852 61.8209 0.174852C63.6929 0.174852 65.2929 0.622852 66.6209 1.51885C67.9649 2.39885 68.9409 3.64685 69.5489 5.26285H67.5809C67.1009 4.12685 66.3649 3.23885 65.3729 2.59885C64.3969 1.95885 63.2129 1.63885 61.8209 1.63885C60.5889 1.63885 59.4769 1.92685 58.4849 2.50285C57.5089 3.07885 56.7409 3.91085 56.1809 4.99885C55.6209 6.07085 55.3409 7.31885 55.3409 8.74285C55.3409 10.1669 55.6209 11.4149 56.1809 12.4869C56.7409 13.5589 57.5089 14.3829 58.4849 14.9589C59.4769 15.5349 60.5889 15.8229 61.8209 15.8229C63.2129 15.8229 64.3969 15.5109 65.3729 14.8869C66.3649 14.2469 67.1009 13.3669 67.5809 12.2469H69.5489C68.9409 13.8469 67.9649 15.0869 66.6209 15.9669C65.2769 16.8469 63.6769 17.2869 61.8209 17.2869C60.2849 17.2869 58.8929 16.9269 57.6449 16.2069C56.3969 15.4709 55.4129 14.4549 54.6929 13.1589C53.9729 11.8629 53.6129 10.3909 53.6129 8.74285ZM72.1286 10.5669C72.1286 9.22285 72.3926 8.04685 72.9206 7.03885C73.4646 6.01485 74.2086 5.23085 75.1526 4.68685C76.1126 4.12685 77.1926 3.84685 78.3926 3.84685C79.6406 3.84685 80.7126 4.13485 81.6086 4.71085C82.5206 5.28685 83.1766 6.02285 83.5766 6.91885V4.03885H85.2566V17.1429H83.5766V14.2389C83.1606 15.1349 82.4966 15.8789 81.5846 16.4709C80.6886 17.0469 79.6166 17.3349 78.3686 17.3349C77.1846 17.3349 76.1126 17.0549 75.1526 16.4949C74.2086 15.9349 73.4646 15.1429 72.9206 14.1189C72.3926 13.0949 72.1286 11.9109 72.1286 10.5669ZM83.5766 10.5909C83.5766 9.53485 83.3606 8.60685 82.9286 7.80685C82.4966 7.00685 81.9046 6.39085 81.1526 5.95885C80.4166 5.52685 79.6006 5.31085 78.7046 5.31085C77.7766 5.31085 76.9446 5.51885 76.2086 5.93485C75.4726 6.35085 74.8886 6.95885 74.4566 7.75885C74.0406 8.54285 73.8326 9.47885 73.8326 10.5669C73.8326 11.6389 74.0406 12.5829 74.4566 13.3989C74.8886 14.1989 75.4726 14.8149 76.2086 15.2469C76.9446 15.6629 77.7766 15.8709 78.7046 15.8709C79.6006 15.8709 80.4166 15.6549 81.1526 15.2229C81.9046 14.7909 82.4966 14.1749 82.9286 13.3749C83.3606 12.5749 83.5766 11.6469 83.5766 10.5909ZM93.6039 17.3349C92.0999 17.3349 90.8679 16.9909 89.9079 16.3029C88.9639 15.5989 88.4359 14.6469 88.3239 13.4469H90.0519C90.1319 14.1829 90.4759 14.7829 91.0839 15.2469C91.7079 15.6949 92.5399 15.9189 93.5799 15.9189C94.4919 15.9189 95.2039 15.7029 95.7159 15.2709C96.2439 14.8389 96.5079 14.3029 96.5079 13.6629C96.5079 13.2149 96.3639 12.8469 96.0759 12.5589C95.7879 12.2709 95.4199 12.0469 94.9719 11.8869C94.5399 11.7109 93.9479 11.5269 93.1959 11.3349C92.2199 11.0789 91.4279 10.8229 90.8199 10.5669C90.2119 10.3109 89.6919 9.93485 89.2599 9.43885C88.8439 8.92685 88.6359 8.24685 88.6359 7.39885C88.6359 6.75885 88.8279 6.16685 89.2119 5.62285C89.5959 5.07885 90.1399 4.64685 90.8439 4.32685C91.5479 4.00685 92.3479 3.84685 93.2439 3.84685C94.6519 3.84685 95.7879 4.20685 96.6519 4.92685C97.5159 5.63085 97.9799 6.60685 98.0439 7.85485H96.3639C96.3159 7.08685 96.0119 6.47085 95.4519 6.00685C94.9079 5.52685 94.1559 5.28685 93.1959 5.28685C92.3479 5.28685 91.6599 5.48685 91.1319 5.88685C90.6039 6.28685 90.3399 6.78285 90.3399 7.37485C90.3399 7.88685 90.4919 8.31085 90.7959 8.64685C91.1159 8.96685 91.5079 9.22285 91.9719 9.41485C92.4359 9.59085 93.0599 9.79085 93.8439 10.0149C94.7879 10.2709 95.5399 10.5189 96.0999 10.7589C96.6599 10.9989 97.1399 11.3509 97.5399 11.8149C97.9399 12.2789 98.1479 12.8949 98.1639 13.6629C98.1639 14.3669 97.9719 14.9989 97.5879 15.5589C97.2039 16.1029 96.6679 16.5349 95.9799 16.8549C95.2919 17.1749 94.4999 17.3349 93.6039 17.3349ZM103.51 5.45485V13.5909C103.51 14.3909 103.662 14.9429 103.966 15.2469C104.27 15.5509 104.806 15.7029 105.574 15.7029H107.11V17.1429H105.31C104.126 17.1429 103.246 16.8709 102.67 16.3269C102.094 15.7669 101.806 14.8549 101.806 13.5909V5.45485H99.9823V4.03885H101.806V0.750852H103.51V4.03885H107.11V5.45485H103.51Z" fill="#F2F2F2"/>
</svg>
